<?xml version="1.0" encoding="UTF-8"?>
<svg xmlns="http://www.w3.org/2000/svg" xmlns:xlink="http://www.w3.org/1999/xlink" width="208pt" height="208pt" viewBox="0 0 208 208" version="1.1">
<g id="surface442288">
<path style=" stroke:none;fill-rule:nonzero;fill:rgb(40%,40%,40%);fill-opacity:1;" d="M 206.84375 44.59375 C 199.3125 47.9375 191.21875 50.1875 182.71875 51.21875 C 191.375 46 198.0625 37.78125 201.1875 27.96875 C 193.0625 32.78125 184.0625 36.28125 174.5 38.15625 C 166.84375 30 155.9375 24.90625 143.84375 24.90625 C 120.65625 24.90625 101.84375 43.71875 101.84375 66.90625 C 101.84375 70.1875 102.21875 73.40625 102.9375 76.46875 C 68.03125 74.71875 37.09375 57.96875 16.375 32.5625 C 12.75 38.78125 10.6875 46 10.6875 53.71875 C 10.6875 68.28125 18.09375 81.125 29.375 88.65625 C 22.46875 88.4375 16 86.5625 10.34375 83.40625 C 10.34375 83.59375 10.34375 83.75 10.34375 83.9375 C 10.34375 104.28125 24.8125 121.25 44.03125 125.125 C 40.5 126.09375 36.8125 126.59375 32.96875 126.59375 C 30.25 126.59375 27.625 126.34375 25.0625 125.84375 C 30.40625 142.5 45.90625 154.6875 64.28125 155 C 49.9375 166.28125 31.8125 172.96875 12.125 172.96875 C 8.71875 172.96875 5.40625 172.78125 2.125 172.40625 C 20.6875 184.3125 42.78125 191.25 66.5 191.25 C 143.75 191.25 186 127.25 186 71.78125 C 186 69.9375 185.96875 68.125 185.875 66.3125 C 194.09375 60.4375 201.21875 53.03125 206.84375 44.59375 "/>
</g>
</svg>
