<?xml version="1.0" encoding="UTF-8"?>
<svg xmlns="http://www.w3.org/2000/svg" xmlns:xlink="http://www.w3.org/1999/xlink" width="480pt" height="480pt" viewBox="0 0 480 480" version="1.1">
<g id="surface444379">
<path style=" stroke:none;fill-rule:nonzero;fill:rgb(40%,40%,40%);fill-opacity:1;" d="M 256.667969 462 C 217.09375 462 189.324219 443.808594 174.109375 407.941406 C 166.308594 389.519531 162 366.394531 162 342.804688 L 162 198 L 102 198 L 102 147.792969 C 163.390625 119.027344 195.683594 75.394531 197.878906 18.132812 L 258.035156 18 L 258 126 L 354 126 L 354 198 L 258 198 L 258 340.597656 C 257.976562 345.984375 258.875 364.332031 271.765625 377.28125 C 280.164062 385.726562 291.730469 390 306.15625 390 C 332.890625 390 362.640625 379.476562 378 373.199219 L 378 431.375 C 367.296875 438.515625 326.675781 462 256.667969 462 Z M 256.667969 462 "/>
<path style=" stroke:none;fill-rule:nonzero;fill:rgb(40%,40%,40%);fill-opacity:1;" d="M 252 24 L 252 132 L 348 132 L 348 192 L 252 192 L 252 340.632812 C 251.964844 346.535156 252.996094 366.910156 267.515625 381.515625 C 277.078125 391.128906 290.089844 396 306.167969 396 C 329.628906 396 355.152344 388.261719 372 381.984375 L 372 428.101562 C 358.414062 436.488281 320.003906 456 256.667969 456 C 219.730469 456 193.8125 439.042969 179.628906 405.601562 C 172.128906 387.910156 168 365.605469 168 342.757812 L 168 192 L 108 192 L 108 151.585938 C 180.816406 116.113281 200.542969 63.863281 203.554688 24.046875 C 216.828125 24.023438 238.523438 24.011719 252 24 M 258.046875 12 C 244.429688 12.011719 211.199219 12.023438 197.773438 12.046875 C 194.53125 12.046875 192.011719 14.675781 191.890625 17.914062 C 188.734375 100.03125 119.4375 133.007812 99.371094 142.402344 C 97.273438 143.386719 96 145.464844 96 147.792969 L 96 198 C 96 201.3125 98.6875 204 102 204 L 156 204 L 156 342.757812 C 156 355.570312 155.890625 468 256.667969 468 C 328.859375 468 370.957031 443.292969 381.421875 436.308594 C 383.0625 435.203125 384 433.355469 384 431.375 L 384 373.199219 C 384 369.742188 381.191406 367.1875 378.023438 367.1875 C 377.269531 367.1875 376.5 367.332031 375.742188 367.644531 C 361.703125 373.378906 332.171875 384 306.167969 384 C 263.148438 384 264 342.347656 264 340.597656 L 264 204 L 354 204 C 357.3125 204 360 201.3125 360 198 L 360 126 C 360 122.6875 357.3125 120 354 120 L 264 120 L 264 18 C 264 14.6875 261.359375 12 258.046875 12 Z M 258.046875 12 "/>
</g>
</svg>
