<?xml version="1.0" encoding="UTF-8"?>
<svg xmlns="http://www.w3.org/2000/svg" xmlns:xlink="http://www.w3.org/1999/xlink" width="512pt" height="512pt" viewBox="0 0 512 512" version="1.1">
<g id="surface443438">
<path style=" stroke:none;fill-rule:nonzero;fill:rgb(40%,40%,40%);fill-opacity:1;" d="M 128 80 C 101.6875 80 80 101.6875 80 128 L 80 384 C 80 410.3125 101.6875 432 128 432 L 384 432 C 410.3125 432 432 410.3125 432 384 L 432 128 C 432 101.6875 410.3125 80 384 80 Z M 336 128 L 384 128 L 384 176 L 336 176 Z M 256 192 C 291.5625 192 320 220.4375 320 256 C 320 291.5625 291.5625 320 256 320 C 220.4375 320 192 291.5625 192 256 C 192 220.4375 220.4375 192 256 192 Z M 112 224 L 165.5 224 C 161.9375 234 160 244.8125 160 256 C 160 308.8125 203.1875 352 256 352 C 308.8125 352 352 308.8125 352 256 C 352 244.8125 350.0625 234 346.5 224 L 400 224 L 400 384 C 400 393.0625 393.0625 400 384 400 L 128 400 C 118.9375 400 112 393.0625 112 384 Z M 112 224 "/>
</g>
</svg>
