<?xml version="1.0" encoding="UTF-8"?>
<svg xmlns="http://www.w3.org/2000/svg" xmlns:xlink="http://www.w3.org/1999/xlink" width="480pt" height="480pt" viewBox="0 0 480 480" version="1.1">
<g id="surface454709">
<path style=" stroke:none;fill-rule:nonzero;fill:rgb(40%,40%,40%);fill-opacity:1;" d="M 144 400 L 64 400 L 64 160 L 144 160 Z M 104.015625 128 C 81.886719 128 64 110.0625 64 87.984375 C 64 65.902344 81.921875 48 104.015625 48 C 126.0625 48 144 65.9375 144 87.984375 C 144 110.0625 126.0625 128 104.015625 128 Z M 432 400 L 355.089844 400 L 355.089844 283.199219 C 355.089844 255.34375 354.558594 219.519531 315.105469 219.519531 C 275.054688 219.519531 268.894531 249.855469 268.894531 281.183594 L 268.894531 400 L 192 400 L 192 159.824219 L 265.824219 159.824219 L 265.824219 192.640625 L 266.863281 192.640625 C 277.136719 173.761719 302.238281 153.855469 339.679688 153.855469 C 417.601562 153.855469 432 203.601562 432 268.273438 Z M 432 400 "/>
</g>
</svg>
