<?xml version="1.0" encoding="UTF-8"?>
<svg xmlns="http://www.w3.org/2000/svg" xmlns:xlink="http://www.w3.org/1999/xlink" width="480pt" height="480pt" viewBox="0 0 480 480" version="1.1">
<g id="surface441560">
<path style=" stroke:none;fill-rule:nonzero;fill:rgb(40%,40%,40%);fill-opacity:1;" d="M 384 64 L 96 64 C 78.320312 64 64 78.320312 64 96 L 64 384 C 64 401.679688 78.320312 416 96 416 L 256 416 L 256 272 L 208 272 L 208 224 L 256 224 L 256 198.222656 C 256 149.425781 279.777344 128 320.335938 128 C 339.761719 128 350.03125 129.441406 354.894531 130.097656 L 354.894531 176 L 327.230469 176 C 310.015625 176 304 185.089844 304 203.488281 L 304 224 L 354.464844 224 L 347.617188 272 L 304 272 L 304 416 L 384 416 C 401.679688 416 416 401.679688 416 384 L 416 96 C 416 78.320312 401.664062 64 384 64 Z M 384 64 "/>
</g>
</svg>
